<?xml version="1.0" standalone="no"?>
<!DOCTYPE svg PUBLIC "-//W3C//DTD SVG 20010904//EN"
 "http://www.w3.org/TR/2001/REC-SVG-20010904/DTD/svg10.dtd">
<svg version="1.0" xmlns="http://www.w3.org/2000/svg"
 width="1024.000000pt" height="576.000000pt" viewBox="0 0 1024.000000 576.000000"
 preserveAspectRatio="xMidYMid meet">

<g transform="translate(0.000000,576.000000) scale(0.100000,-0.100000)"
fill="#000000" stroke="none">
<path d="M2254 3859 c-308 -51 -576 -254 -722 -544 -50 -102 -102 -306 -102
-407 l0 -28 249 0 248 0 6 56 c13 130 128 289 252 351 89 44 150 58 250 58
194 -1 359 -102 438 -267 18 -37 37 -67 43 -67 21 -2 149 97 216 165 37 38 86
95 108 127 90 126 159 320 175 490 l7 77 -558 -1 c-308 -1 -582 -5 -610 -10z"/>
<path d="M6040 3065 l0 -105 -100 0 -100 0 0 -70 0 -70 99 0 100 0 3 -327 c3
-320 4 -329 26 -375 13 -26 38 -56 55 -67 67 -41 216 -50 320 -19 l37 11 0 67
0 66 -84 -4 c-80 -4 -86 -3 -110 21 l-26 26 0 300 0 300 108 3 107 3 3 68 3
67 -110 0 -110 0 -3 103 -3 102 -107 3 -108 3 0 -106z"/>
<path d="M4076 2984 c-189 -37 -314 -152 -361 -331 -20 -76 -19 -238 1 -316
32 -124 102 -214 207 -265 94 -46 161 -57 347 -56 174 0 249 13 330 54 81 42
149 133 165 222 l7 36 -107 -1 -107 -2 -13 -38 c-29 -85 -106 -126 -250 -134
-128 -8 -227 14 -285 64 -53 46 -90 125 -90 193 l0 50 433 2 432 3 -3 75 c-8
201 -83 330 -235 400 -117 55 -322 74 -471 44z m279 -136 c76 -15 142 -60 171
-118 24 -46 46 -135 36 -145 -3 -3 -149 -5 -324 -5 l-318 0 0 24 c0 36 27 106
56 143 73 95 217 134 379 101z"/>
<path d="M6965 2994 c-111 -17 -212 -64 -276 -126 -184 -180 -185 -577 -1
-738 100 -89 198 -114 432 -115 186 0 249 10 330 50 86 43 155 135 175 233 l7
32 -109 0 -109 0 -20 -48 c-28 -66 -74 -99 -165 -118 -95 -20 -231 -13 -297
16 -90 40 -142 116 -156 228 l-7 52 436 0 435 0 0 73 c-1 231 -105 375 -320
442 -55 17 -288 29 -355 19z m293 -166 c69 -26 115 -73 142 -144 39 -106 62
-99 -302 -102 l-318 -2 0 24 c0 67 54 159 119 202 83 54 245 64 359 22z"/>
<path d="M8143 2990 c-171 -31 -300 -135 -355 -287 -30 -82 -37 -273 -13 -363
62 -240 252 -344 595 -327 141 8 219 27 287 72 83 55 135 139 149 243 l7 52
-112 0 c-107 0 -111 -1 -111 -21 0 -77 -64 -165 -137 -187 -102 -30 -243 -23
-323 18 -53 27 -105 89 -126 151 -28 81 -26 254 5 331 26 68 86 132 149 161
57 26 209 30 286 8 63 -19 120 -73 135 -128 l12 -43 104 0 105 0 0 28 c-2 112
-109 228 -251 273 -74 24 -317 35 -406 19z"/>
<path d="M4880 2890 l0 -70 295 0 c162 0 295 -3 295 -7 0 -3 -142 -147 -315
-320 l-315 -314 0 -64 0 -65 445 0 445 0 0 65 0 65 -324 0 c-179 0 -327 4
-330 8 -3 5 137 150 310 323 l314 314 0 67 0 68 -410 0 -410 0 0 -70z"/>
<path d="M2926 2858 c-3 -13 -8 -44 -11 -70 -9 -73 -61 -165 -129 -233 -156
-153 -390 -189 -590 -91 -99 49 -199 156 -236 252 l-16 44 -64 -42 c-88 -57
-227 -197 -285 -287 -57 -87 -105 -198 -129 -293 -22 -87 -38 -230 -27 -241 4
-4 268 -6 587 -5 563 4 581 4 659 26 218 60 434 212 556 388 93 135 159 324
173 492 l7 82 -245 0 -246 0 -4 -22z"/>
</g>
</svg>
